<svg version="1.1" xmlns="http://www.w3.org/2000/svg" xmlns:xlink="http://www.w3.org/1999/xlink" width="32px" height="32px" viewBox="0,0,256,256"><g fill="#ffffff" fill-rule="nonzero" stroke="none" stroke-width="1" stroke-linecap="butt" stroke-linejoin="miter" stroke-miterlimit="10" stroke-dasharray="" stroke-dashoffset="0" font-family="none" font-weight="none" font-size="none" text-anchor="none" style="mix-blend-mode: normal"><g transform="translate(0.23816,-0.0655) scale(8,8)"><g id="Layer_2"><path d="M19.45,4.11c-0.32533,-0.15164 -0.70698,-0.11729 -1,0.09l-7.78,5.8h-7.67c-0.55228,0 -1,0.44772 -1,1v10c0,0.55228 0.44772,1 1,1h7.67l7.73,5.8c0.30302,0.22726 0.70843,0.26382 1.04721,0.09443c0.33878,-0.16939 0.55279,-0.51566 0.55279,-0.89443v-22c-0.00114,-0.37656 -0.21372,-0.72055 -0.55,-0.89z"></path><path d="M27.41,16l2.29,-2.29c0.33978,-0.39676 0.31693,-0.98819 -0.05244,-1.35756c-0.36937,-0.36937 -0.9608,-0.39221 -1.35756,-0.05244l-2.29,2.29l-2.29,-2.29c-0.39676,-0.33978 -0.98819,-0.31693 -1.35756,0.05244c-0.36937,0.36937 -0.39221,0.9608 -0.05244,1.35756l2.29,2.29l-2.29,2.29c-0.28538,0.24439 -0.40968,0.62812 -0.32181,0.99342c0.08787,0.3653 0.37309,0.65052 0.73839,0.73839c0.3653,0.08787 0.74903,-0.03643 0.99342,-0.32181l2.29,-2.29l2.29,2.29c0.39676,0.33978 0.98819,0.31693 1.35756,-0.05244c0.36937,-0.36937 0.39221,-0.9608 0.05244,-1.35756z"></path></g></g></g></svg>