<svg version="1.1" xmlns="http://www.w3.org/2000/svg" xmlns:xlink="http://www.w3.org/1999/xlink" width="24px" height="24px" viewBox="0,0,256,256"><g fill="#ffffff" fill-rule="nonzero" stroke="none" stroke-width="1" stroke-linecap="butt" stroke-linejoin="miter" stroke-miterlimit="10" stroke-dasharray="" stroke-dashoffset="0" font-family="none" font-weight="none" font-size="none" text-anchor="none" style="mix-blend-mode: normal"><g transform="scale(10.66667,10.66667)"><g id="_10._Settings"><path d="M22.22,13.28c-0.17643,-0.106 -0.27428,-0.30562 -0.25,-0.51c0.02,-0.25 0.03,-0.51 0.03,-0.77c0,-0.26 -0.01,-0.52 -0.03,-0.77c-0.02428,-0.20438 0.07357,-0.404 0.25,-0.51c1.19985,-0.69417 1.61141,-2.22856 0.92,-3.43l-1.49,-2.58c-0.33472,-0.57769 -0.88565,-0.99836 -1.5311,-1.1691c-0.64545,-0.17074 -1.33232,-0.07751 -1.9089,0.2591c-0.1682,0.09068 -0.3731,0.07908 -0.53,-0.03c-0.44257,-0.30123 -0.90722,-0.56865 -1.39,-0.8c-0.17889,-0.08277 -0.29245,-0.26291 -0.29,-0.46c-0.00439,-1.38441 -1.12559,-2.50561 -2.51,-2.51h-2.98c-1.38785,0.00551 -2.51001,1.13214 -2.51,2.52c0.00038,0.1912 -0.1083,0.36587 -0.28,0.45c-0.48716,0.22909 -0.9553,0.4966 -1.4,0.8c-0.16059,0.11174 -0.37159,0.11955 -0.54,0.02c-1.20144,-0.69141 -2.73583,-0.27985 -3.43,0.92l-1.49,2.58c-0.69141,1.20144 -0.27985,2.73583 0.92,3.43c0.17643,0.106 0.27428,0.30562 0.25,0.51c-0.02,0.25 -0.03,0.51 -0.03,0.77c0,0.26 0.01,0.52 0.03,0.77c0.02428,0.20438 -0.07357,0.404 -0.25,0.51c-1.19985,0.69417 -1.61141,2.22856 -0.92,3.43l1.49,2.58c0.33472,0.57769 0.88565,0.99836 1.5311,1.1691c0.64545,0.17074 1.33232,0.07751 1.9089,-0.2591c0.16701,-0.09589 0.37488,-0.08412 0.53,0.03c0.44257,0.30123 0.90722,0.56865 1.39,0.8c0.17889,0.08277 0.29245,0.26291 0.29,0.46c0.00439,1.38441 1.12559,2.50561 2.51,2.51h2.98c1.38785,-0.00551 2.51001,-1.13214 2.51,-2.52c-0.00038,-0.1912 0.1083,-0.36587 0.28,-0.45c0.48716,-0.22909 0.9553,-0.4966 1.4,-0.8c0.16059,-0.11174 0.37159,-0.11955 0.54,-0.02c1.20167,0.68964 2.73475,0.27843 3.43,-0.92l1.49,-2.58c0.69141,-1.20144 0.27985,-2.73583 -0.92,-3.43zM12,18c-3.31371,0 -6,-2.68629 -6,-6c0,-3.31371 2.68629,-6 6,-6c3.31371,0 6,2.68629 6,6c-0.00331,3.31234 -2.68766,5.99669 -6,6z"></path><circle cx="12" cy="12" r="4"></circle></g></g></g></svg>