<svg version="1.1" xmlns="http://www.w3.org/2000/svg" xmlns:xlink="http://www.w3.org/1999/xlink" width="512px" height="512px" viewBox="0,0,256,256"><g fill="#ffffff" fill-rule="nonzero" stroke="none" stroke-width="1" stroke-linecap="butt" stroke-linejoin="miter" stroke-miterlimit="10" stroke-dasharray="" stroke-dashoffset="0" font-family="none" font-weight="none" font-size="none" text-anchor="none" style="mix-blend-mode: normal"><g transform="translate(-0.00025,0.00025) scale(0.5,0.5)"><path d="M496.851,212.213l-48.806,-12.201c-4.106,-14.108 -9.722,-27.572 -16.666,-40.205l25.89,-43.151c4.722,-7.869 3.482,-17.943 -3.008,-24.432l-34.485,-34.485c-6.489,-6.49 -16.563,-7.729 -24.432,-3.008l-43.151,25.89c-12.633,-6.944 -26.097,-12.56 -40.205,-16.666l-12.201,-48.805c-2.226,-8.904 -10.225,-15.15 -19.403,-15.15h-48.769c-9.177,0 -17.177,6.246 -19.403,15.149l-12.201,48.805c-14.108,4.106 -27.572,9.722 -40.205,16.666l-43.151,-25.89c-7.87,-4.722 -17.943,-3.482 -24.432,3.008l-34.485,34.485c-6.489,6.489 -7.729,16.562 -3.008,24.432l25.89,43.151c-6.944,12.633 -12.56,26.097 -16.666,40.205l-48.806,12.201c-8.902,2.226 -15.148,10.226 -15.148,19.403v48.769c0,9.177 6.246,17.177 15.149,19.403l48.806,12.201c4.106,14.108 9.722,27.572 16.666,40.205l-25.89,43.151c-4.722,7.869 -3.482,17.943 3.008,24.432l34.485,34.485c6.489,6.49 16.563,7.729 24.432,3.008l43.151,-25.89c12.633,6.944 26.097,12.56 40.205,16.666l12.201,48.805c2.226,8.903 10.225,15.149 19.403,15.149h48.769c9.177,0 17.177,-6.246 19.403,-15.149l12.201,-48.805c14.108,-4.106 27.572,-9.722 40.205,-16.666l43.151,25.89c7.87,4.722 17.943,3.482 24.432,-3.008l34.485,-34.485c6.489,-6.489 7.729,-16.562 3.008,-24.432l-25.89,-43.151c6.944,-12.633 12.56,-26.097 16.666,-40.205l48.806,-12.201c8.903,-2.226 15.149,-10.226 15.149,-19.403v-48.769c-0.001,-9.177 -6.247,-17.177 -15.15,-19.402zM256,336c-44.112,0 -80,-35.888 -80,-80c0,-44.112 35.888,-80 80,-80c44.112,0 80,35.888 80,80c0,44.112 -35.888,80 -80,80z"></path></g></g></svg>