<svg version="1.1" xmlns="http://www.w3.org/2000/svg" xmlns:xlink="http://www.w3.org/1999/xlink" width="32px" height="32px" viewBox="0,0,256,256"><g fill="none" fill-rule="nonzero" stroke="none" stroke-width="1" stroke-linecap="butt" stroke-linejoin="miter" stroke-miterlimit="10" stroke-dasharray="" stroke-dashoffset="0" font-family="none" font-weight="none" font-size="none" text-anchor="none" style="mix-blend-mode: normal"><g transform="scale(8,8)"><g id="Layer_2" fill="#ffffff"><path d="M18,29h-4c-0.55228,0 -1,-0.44772 -1,-1v-1.44c0.00753,-0.56002 -0.32417,-1.06906 -0.83953,-1.28836c-0.51536,-0.2193 -1.11214,-0.10537 -1.51047,0.28836l-1,1c-0.18777,0.18931 -0.44336,0.2958 -0.71,0.2958c-0.26664,0 -0.52223,-0.10649 -0.71,-0.2958l-2.84,-2.78c-0.18931,-0.18777 -0.2958,-0.44336 -0.2958,-0.71c0,-0.26664 0.10649,-0.52223 0.2958,-0.71l1,-1c0.39373,-0.39833 0.50766,-0.99512 0.28836,-1.51047c-0.2193,-0.51536 -0.72833,-0.84705 -1.28836,-0.83953h-1.39c-0.55228,0 -1,-0.44772 -1,-1v-4.01c0,-0.55228 0.44772,-1 1,-1h1.44c0.56002,0.00753 1.06906,-0.32417 1.28836,-0.83953c0.2193,-0.51536 0.10537,-1.11214 -0.28836,-1.51047l-1,-1c-0.18931,-0.18777 -0.2958,-0.44336 -0.2958,-0.71c0,-0.26664 0.10649,-0.52223 0.2958,-0.71l2.78,-2.84c0.18777,-0.18931 0.44336,-0.2958 0.71,-0.2958c0.26664,0 0.52223,0.10649 0.71,0.2958l1,1c0.39833,0.39373 0.99512,0.50766 1.51047,0.28836c0.51536,-0.2193 0.84705,-0.72833 0.83953,-1.28836v-1.39c0,-0.55228 0.44772,-1 1,-1h4c0.55228,0 1,0.44772 1,1v1.44c-0.00753,0.56002 0.32417,1.06906 0.83953,1.28836c0.51536,0.2193 1.11214,0.10537 1.51047,-0.28836l1,-1c0.18777,-0.18931 0.44336,-0.2958 0.71,-0.2958c0.26664,0 0.52223,0.10649 0.71,0.2958l2.83,2.83c0.18931,0.18777 0.2958,0.44336 0.2958,0.71c0,0.26664 -0.10649,0.52223 -0.2958,0.71l-1,1c-0.39373,0.39833 -0.50766,0.99512 -0.28836,1.51047c0.2193,0.51536 0.72833,0.84705 1.28836,0.83953h1.41c0.55228,0 1,0.44772 1,1v4c0,0.55228 -0.44772,1 -1,1h-1.44c-0.56002,-0.00753 -1.06906,0.32417 -1.28836,0.83953c-0.2193,0.51536 -0.10537,1.11214 0.28836,1.51047l1,1c0.18931,0.18777 0.2958,0.44336 0.2958,0.71c0,0.26664 -0.10649,0.52223 -0.2958,0.71l-2.83,2.83c-0.18777,0.18931 -0.44336,0.2958 -0.71,0.2958c-0.26664,0 -0.52223,-0.10649 -0.71,-0.2958l-1,-1c-0.39833,-0.39373 -0.99512,-0.50766 -1.51047,-0.28836c-0.51536,0.2193 -0.84705,0.72833 -0.83953,1.28836v1.36c0.00043,0.53703 -0.4234,0.97852 -0.96,1zM15,27h2v-0.44c-0.00167,-1.36561 0.82095,-2.59722 2.08306,-3.11872c1.26211,-0.5215 2.71417,-0.22977 3.67694,0.73872l0.31,0.31l1.42,-1.42l-0.31,-0.31c-0.96849,-0.96276 -1.26022,-2.41483 -0.73872,-3.67694c0.5215,-1.26211 1.75311,-2.08474 3.11872,-2.08306h0.44v-2h-0.44c-1.36561,0.00167 -2.59722,-0.82095 -3.11872,-2.08306c-0.5215,-1.26211 -0.22977,-2.71417 0.73872,-3.67694l0.31,-0.31l-1.42,-1.42l-0.31,0.31c-0.96276,0.96849 -2.41483,1.26022 -3.67694,0.73872c-1.26211,-0.5215 -2.08474,-1.75311 -2.08306,-3.11872v-0.44h-2v0.44c0.00167,1.36561 -0.82095,2.59722 -2.08306,3.11872c-1.26211,0.5215 -2.71417,0.22977 -3.67694,-0.73872l-0.31,-0.31l-1.42,1.42l0.31,0.31c0.96849,0.96276 1.26022,2.41483 0.73872,3.67694c-0.5215,1.26211 -1.75311,2.08474 -3.11872,2.08306h-0.44v2h0.44c1.36561,-0.00167 2.59722,0.82095 3.11872,2.08306c0.5215,1.26211 0.22977,2.71417 -0.73872,3.67694l-0.31,0.31l1.42,1.42l0.31,-0.31c0.96276,-0.96849 2.41483,-1.26022 3.67694,-0.73872c1.26211,0.5215 2.08474,1.75311 2.08306,3.11872z"></path><path d="M16,21c-2.76142,0 -5,-2.23858 -5,-5c0,-2.76142 2.23858,-5 5,-5c2.76142,0 5,2.23858 5,5c0,2.76142 -2.23858,5 -5,5zM16,13c-1.65685,0 -3,1.34315 -3,3c0,1.65685 1.34315,3 3,3c1.65685,0 3,-1.34315 3,-3c0,-1.65685 -1.34315,-3 -3,-3z"></path></g><g id="frame" fill="none"><rect x="0" y="0" width="32" height="32"></rect></g></g></g></svg>