<svg version="1.1" xmlns="http://www.w3.org/2000/svg" xmlns:xlink="http://www.w3.org/1999/xlink" width="100%" height="100%" viewBox="0,0,256,256"><g fill="#ffffff" fill-rule="evenodd" stroke="none" stroke-width="1" stroke-linecap="butt" stroke-linejoin="round" stroke-miterlimit="2" stroke-dasharray="" stroke-dashoffset="0" font-family="none" font-weight="none" font-size="none" text-anchor="none" style="mix-blend-mode: normal"><g transform="translate(-5.33466,0) scale(10.66667,10.66667)"><g id="Icon"><path d="M18.626,8.751c-1.205,-2.373 -3.688,-4.001 -6.55,-4.001c-4.041,0 -7.326,3.247 -7.326,7.25c0,4.003 3.285,7.25 7.326,7.25c3.577,0 6.561,-2.543 7.199,-5.904c0.078,-0.406 0.471,-0.674 0.877,-0.596c0.407,0.077 0.674,0.47 0.597,0.876c-0.77,4.052 -4.361,7.124 -8.673,7.124c-4.873,0 -8.826,-3.923 -8.826,-8.75c0,-4.827 3.953,-8.75 8.826,-8.75c3.395,0 6.344,1.905 7.819,4.692l0.393,-1.179c0.131,-0.393 0.556,-0.605 0.949,-0.475c0.393,0.131 0.605,0.556 0.475,0.949l-1,3c-0.131,0.393 -0.556,0.605 -0.949,0.475l-3,-1c-0.393,-0.131 -0.605,-0.556 -0.475,-0.949c0.131,-0.393 0.556,-0.605 0.949,-0.475z"></path></g></g></g></svg>